<svg width="184" height="57" viewBox="0 0 184 57" fill="none" xmlns="http://www.w3.org/2000/svg">
<g clip-path="url(#clip0_85_313)">
<path d="M97.9771 50.8149C99.5006 50.8149 100.321 51.5426 100.321 53.1192C100.321 53.8468 100.087 54.3319 99.735 54.817C99.2662 55.1809 98.6803 55.4234 97.9771 55.4234H95.2815V50.9362H97.9771V50.8149ZM95.2815 45.4787H97.6255C98.4459 45.4787 99.0319 45.6 99.3834 45.9638C99.735 46.3277 99.9694 46.8128 99.9694 47.4192C99.9694 48.0255 99.735 48.5106 99.3834 48.8745C98.9147 49.2383 98.4459 49.3596 97.7427 49.3596H95.2815V45.4787ZM93.758 56.7574H97.9771C99.2662 56.7574 100.204 56.3936 101.024 55.7872C101.727 55.1809 102.079 54.3319 102.079 53.1192C102.079 52.3915 101.845 51.7851 101.493 51.1787C101.141 50.6936 100.555 50.2085 99.9694 50.0872C100.555 49.8447 100.907 49.4809 101.259 48.9957C101.61 48.5106 101.727 48.0255 101.727 47.4192C101.727 46.3277 101.376 45.4787 100.673 44.8723C99.9694 44.266 99.0319 44.0234 97.7427 44.0234H93.758V56.7574Z" fill="#694aff"/>
<path d="M112.861 44.1447V52.7553C112.861 53.9681 112.51 54.9383 111.806 55.666C111.103 56.3936 110.166 56.8787 108.876 57H108.408C107.118 57 106.064 56.6362 105.243 55.9085C104.423 55.1809 104.071 54.0894 104.071 52.8766V44.266H105.595V52.7553C105.595 53.6043 105.829 54.3319 106.298 54.9383C106.767 55.4234 107.47 55.666 108.408 55.666C109.345 55.666 110.048 55.4234 110.517 54.9383C110.986 54.4532 111.22 53.7255 111.22 52.8766V44.3872L112.861 44.1447Z" fill="#694aff"/>
<path d="M117.197 56.7574H115.557V44.1447H117.197V56.7574Z" fill="#694aff"/>
<path d="M121.768 55.4234H127.511V56.7574H120.127V44.1447H121.768V55.4234Z" fill="#694aff"/>
<path d="M132.785 45.4787C133.957 45.4787 134.894 45.8426 135.597 46.6915C136.301 47.5404 136.535 48.6319 136.535 50.0872V50.8149C136.535 52.2702 136.183 53.483 135.48 54.2106C134.777 54.9383 133.839 55.4234 132.55 55.4234H130.91V45.6L132.785 45.4787ZM132.668 56.7574C133.722 56.7574 134.66 56.5149 135.48 56.0298C136.301 55.5447 137.004 54.817 137.355 53.9681C137.824 53.1192 138.059 52.0277 138.059 50.8149V49.966C138.059 48.7532 137.824 47.783 137.355 46.934C136.887 46.0851 136.301 45.3574 135.48 44.8723C134.66 44.3872 133.722 44.1447 132.668 44.1447H129.269V56.7574H132.668Z" fill="#694aff"/>
<path d="M90.242 52.1489V50.9362H46.9962" fill="#E8E8E8"/>
<path d="M141.223 52.1489V50.9362H184.469" fill="#E8E8E8"/>
<path d="M55.3172 12.9766H59.6535C61.0599 12.9766 62.2318 13.3404 62.935 14.0681C63.6382 14.7957 63.9898 15.766 63.9898 17.1C63.9898 18.3128 63.6382 19.4043 62.8178 20.1319C62.1146 20.8596 61.0599 21.2234 59.6535 21.2234H55.2L55.3172 12.9766ZM64.693 35.7766H70.5529V35.534L64.8102 24.3766C66.3338 23.6489 67.6229 22.6787 68.3261 21.3447C69.1465 20.1319 69.4981 18.5553 69.4981 16.6149C69.4981 13.9468 68.6777 12.0064 66.9197 10.5511C65.279 9.09575 62.8178 8.36809 59.6535 8.36809H49.8089L49.9261 35.7766H55.4344V25.7106H59.7707L64.693 35.7766Z" fill="black"/>
<path d="M81.8038 19.283C82.9758 19.283 83.7962 19.6468 84.3822 20.2532C84.9681 20.8596 85.3197 21.8298 85.3197 23.0426V23.5277H78.0535C78.2879 22.1936 78.6395 21.1021 79.3427 20.3745C79.9287 19.6468 80.749 19.283 81.8038 19.283ZM82.507 36.0192C84.1478 36.0192 85.6713 35.6553 86.9605 35.0489C88.2497 34.4426 89.3045 33.4724 90.1248 32.3809L87.5465 29.3489C86.3745 30.8043 84.8509 31.6532 82.8586 31.6532C81.5694 31.6532 80.5146 31.2894 79.5771 30.4404C78.7567 29.5915 78.1707 28.6213 78.0535 27.2872L90.5936 27.166V24.983C90.5936 21.7085 89.7732 19.283 88.2497 17.5851C86.7261 15.8872 84.6166 14.917 81.921 15.0383C80.1631 15.0383 78.5223 15.5234 77.1159 16.3723C75.7096 17.2213 74.6548 18.5553 73.8344 20.1319C73.1312 21.7085 72.6624 23.5277 72.6624 25.5894V26.0745C72.6624 29.1064 73.6 31.5319 75.4752 33.3511C77.2331 35.1702 79.5771 36.0192 82.507 36.0192Z" fill="black"/>
<path d="M104.189 29.9553C104.189 29.3489 103.837 28.7426 103.251 28.3787C102.665 28.0149 101.61 27.6511 100.204 27.4085C95.5159 26.4383 93.172 24.3766 93.172 21.2234C93.172 19.4043 93.8752 17.9489 95.2815 16.7362C96.6879 15.5234 98.5631 14.917 100.907 14.917C103.368 14.917 105.361 15.5234 106.884 16.7362C108.408 17.9489 109.111 19.5255 109.111 21.466H103.837C103.837 20.7383 103.603 20.0106 103.134 19.5255C102.665 19.0404 101.845 18.7979 100.907 18.7979C99.9694 18.7979 99.3834 19.0404 98.7975 19.4043C98.3287 19.7681 98.0943 20.3745 98.0943 20.9809C98.0943 21.5872 98.3287 22.0723 98.9146 22.4362C99.5006 22.8 100.438 23.1638 101.727 23.4064C103.017 23.6489 104.189 24.0128 105.009 24.2553C107.822 25.3468 109.228 27.166 109.228 29.7128C109.228 31.5319 108.525 33.1085 107.001 34.2C105.478 35.4128 103.485 35.8979 101.024 35.8979C99.3834 35.8979 97.8599 35.6553 96.6879 35.0489C95.3987 34.4426 94.4611 33.5936 93.6408 32.6234C92.8204 31.6532 92.586 30.3191 92.586 29.1064H97.6255C97.6255 30.0766 98.0943 30.8043 98.6802 31.2894C99.2662 31.7745 100.204 32.017 101.259 32.017C102.313 32.017 103.017 31.7745 103.485 31.4106C103.954 31.0468 104.189 30.5617 104.189 29.9553Z" fill="black"/>
<path d="M124.464 33.3511C123.175 34.9277 121.417 35.7766 119.073 35.7766C116.963 35.7766 115.322 35.1702 114.268 33.9574C113.096 32.7447 112.627 30.9255 112.51 28.5L112.392 15.1596H117.666L117.783 28.3787C117.783 30.5617 118.721 31.5319 120.596 31.5319C122.354 31.5319 123.643 30.9255 124.229 29.5915L124.112 15.1596H129.386L129.503 35.534H124.581L124.464 33.3511Z" fill="black"/>
<path d="M138.41 14.917L138.645 17.2213C140.051 15.4021 141.926 14.5532 144.27 14.5532C146.848 14.5532 148.489 15.5234 149.544 17.5851C150.95 15.5234 152.825 14.4319 155.404 14.4319C157.513 14.4319 159.154 15.0383 160.209 16.3723C161.264 17.7064 161.732 19.6468 161.85 22.1936L161.732 35.1702H156.459L156.341 22.1936C156.341 20.9809 156.107 20.2532 155.638 19.6468C155.169 19.1617 154.466 18.7979 153.294 18.9192C151.771 18.9192 150.599 19.7681 150.013 21.2234L150.13 35.1702H144.856L144.739 22.1936C144.739 20.9809 144.504 20.1319 144.036 19.6468C143.567 19.1617 142.864 18.9192 141.809 18.9192C140.285 18.9192 139.231 19.5255 138.527 20.8596L138.645 35.2915H133.371L133.253 14.917H138.41Z" fill="black"/>
<path d="M176.734 19.7681C177.32 20.3745 177.671 21.3447 177.671 22.5575V23.0426H170.405C170.639 21.7085 170.991 20.617 171.694 19.8894C172.28 19.1617 173.218 18.7979 174.273 18.7979C175.21 18.6766 176.148 19.0404 176.734 19.7681ZM174.859 35.4128C176.499 35.4128 178.023 35.0489 179.312 34.4426C180.601 33.8362 181.656 32.866 182.476 31.7745L179.898 28.7426C178.726 30.1979 177.203 31.0468 175.21 31.0468C173.921 31.0468 172.866 30.683 171.929 29.8341C171.108 28.9851 170.522 28.0149 170.405 26.6809H182.828V24.4979C182.828 21.2234 182.008 18.7979 180.484 17.1C178.961 15.4021 176.851 14.4319 174.155 14.5532C172.397 14.5532 170.757 15.0383 169.35 15.8872C167.944 16.7362 166.889 18.0702 166.069 19.6468C165.366 21.2234 164.897 23.0426 164.897 25.1043V25.4681C164.897 28.5 165.834 30.9255 167.71 32.7447C169.585 34.5638 171.929 35.534 174.859 35.4128Z" fill="black"/>
<path d="M36.6828 3.6383V3.27448H34.5732L36.6828 3.6383Z" fill="#E8E8E8"/>
<path d="M8.32102 49.3596H3.16433V48.6319L0.585987 48.2681L3.16433 28.8638V11.7638H5.39108L6.09427 6.18511L9.84459 3.27448H6.79745L0 10.066V52.6341H31.2917L8.32102 49.3596Z" fill="#E8E8E8"/>
<path d="M11.9541 34.4425C14.1809 34.8064 29.065 36.8681 31.2917 37.2319C32.9325 37.4745 33.2841 34.8064 31.6433 34.5638C29.4166 34.2 14.5325 32.1383 12.3057 31.7745C10.665 31.4106 10.3134 34.2 11.9541 34.4425Z" fill="#694aff"/>
<path d="M11.0166 41.4766C13.2433 41.8404 15.5873 42.083 17.814 42.4468C19.4548 42.6894 19.8064 40.0213 18.1656 39.7787C15.9389 39.4149 13.5949 39.1723 11.3682 38.8085C9.72739 38.566 9.37579 41.234 11.0166 41.4766Z" fill="#694aff"/>
<path d="M13.4777 22.4362C11.8369 22.1936 11.4853 24.8617 13.1261 25.1043C15.3529 25.4681 30.2369 27.5298 32.4637 27.8936C34.1045 28.1362 34.456 25.4681 32.8153 25.2255C30.5885 24.8617 15.8217 22.8 13.4777 22.4362Z" fill="#694aff"/>
<path d="M12.5401 29.4702C14.7669 29.834 29.651 31.8957 31.8777 32.2596C33.5185 32.5021 33.8701 29.834 32.2293 29.5915C30.0025 29.2277 15.1185 27.166 12.8917 26.8021C11.251 26.5596 10.8994 29.3489 12.5401 29.4702Z" fill="#694aff"/>
<path d="M33.9873 13.8255C31.7605 13.4617 29.4166 13.2192 27.1898 12.8553C25.549 12.6128 25.1974 15.2809 26.8382 15.5234C29.065 15.8872 31.4089 16.1298 33.6357 16.4936C35.2764 16.7362 35.628 14.0681 33.9873 13.8255Z" fill="#694aff"/>
<path d="M33.4013 18.1915C31.1745 17.8277 28.8306 17.5851 26.6038 17.2213C24.9631 16.9787 24.6115 19.6468 26.2522 19.8894C28.479 20.2532 30.8229 20.4957 33.0497 20.8596C34.6904 21.1021 35.042 18.434 33.4013 18.1915Z" fill="#694aff"/>
<path d="M9.1414 8.24681L14.4153 8.97447L15.1185 3.88085L39.8471 7.39787L34.2217 49.7234L4.2191 45.4787L9.1414 8.24681ZM6.21146 6.18511L0.585983 48.2681L36.9172 53.483L43.4803 4.60851L13.8293 0.363831L6.21146 6.18511Z" fill="#694aff"/>
</g>
<defs>
<clipPath id="clip0_85_313">
<rect width="184" height="57" fill="white"/>
</clipPath>
</defs>
</svg>
